<svg width="24" height="25" viewBox="0 0 24 25" fill="none" xmlns="http://www.w3.org/2000/svg">
<path d="M2.5 11.4384C2.5 10.2142 3.06058 9.05744 4.02142 8.29888L9.52142 3.95677C10.9747 2.80948 13.0253 2.80948 14.4786 3.95677L19.9786 8.29888C20.9394 9.05744 21.5 10.2142 21.5 11.4384V18C21.5 20.2091 19.7091 22 17.5 22H16C15.4477 22 15 21.5523 15 21V18C15 16.8954 14.1046 16 13 16H11C9.89543 16 9 16.8954 9 18V21C9 21.5523 8.55228 22 8 22H6.5C4.29086 22 2.5 20.2091 2.5 18L2.5 11.4384Z" stroke="#F2FEFF" stroke-width="2"/>
</svg>
